<mxfile host="app.diagrams.net" modified="2022-07-04T23:27:13.640Z" agent="5.0 (Windows NT 10.0; Win64; x64) AppleWebKit/537.36 (KHTML, like Gecko) Chrome/103.0.0.0 Safari/537.36" etag="Wd3-q6AzzBiqmTaPaVgC" version="20.0.4" type="github">
  <diagram id="WpaFlRuP0TGL1UNIAD2e" name="Page-1">
    <mxGraphModel dx="819" dy="759" grid="1" gridSize="10" guides="1" tooltips="1" connect="1" arrows="1" fold="1" page="1" pageScale="1" pageWidth="827" pageHeight="1169" math="0" shadow="0">
      <root>
        <mxCell id="0" />
        <mxCell id="1" parent="0" />
        <mxCell id="4DTjlwW2_hXMruBSc5rI-1" value="Application" style="swimlane;fontStyle=1;align=center;verticalAlign=top;childLayout=stackLayout;horizontal=1;startSize=26;horizontalStack=0;resizeParent=1;resizeParentMax=0;resizeLast=0;collapsible=1;marginBottom=0;" vertex="1" parent="1">
          <mxGeometry x="40" y="40" width="160" height="180" as="geometry" />
        </mxCell>
        <mxCell id="4DTjlwW2_hXMruBSc5rI-2" value="- name : String&#xa;- info : String&#xa;" style="text;strokeColor=none;fillColor=none;align=left;verticalAlign=top;spacingLeft=4;spacingRight=4;overflow=hidden;rotatable=0;points=[[0,0.5],[1,0.5]];portConstraint=eastwest;" vertex="1" parent="4DTjlwW2_hXMruBSc5rI-1">
          <mxGeometry y="26" width="160" height="34" as="geometry" />
        </mxCell>
        <mxCell id="4DTjlwW2_hXMruBSc5rI-3" value="" style="line;strokeWidth=1;fillColor=none;align=left;verticalAlign=middle;spacingTop=-1;spacingLeft=3;spacingRight=3;rotatable=0;labelPosition=right;points=[];portConstraint=eastwest;" vertex="1" parent="4DTjlwW2_hXMruBSc5rI-1">
          <mxGeometry y="60" width="160" height="28" as="geometry" />
        </mxCell>
        <mxCell id="4DTjlwW2_hXMruBSc5rI-4" value="+ subscribe()&#xa;+ buyMovie()&#xa;+ rentMovie()&#xa;+ requestMovie()&#xa;+ putInOrder()&#xa;+ movieList()" style="text;strokeColor=none;fillColor=none;align=left;verticalAlign=top;spacingLeft=4;spacingRight=4;overflow=hidden;rotatable=0;points=[[0,0.5],[1,0.5]];portConstraint=eastwest;" vertex="1" parent="4DTjlwW2_hXMruBSc5rI-1">
          <mxGeometry y="88" width="160" height="92" as="geometry" />
        </mxCell>
        <mxCell id="4DTjlwW2_hXMruBSc5rI-14" value="User" style="swimlane;fontStyle=1;align=center;verticalAlign=top;childLayout=stackLayout;horizontal=1;startSize=26;horizontalStack=0;resizeParent=1;resizeParentMax=0;resizeLast=0;collapsible=1;marginBottom=0;" vertex="1" parent="1">
          <mxGeometry x="320" y="80" width="160" height="218" as="geometry" />
        </mxCell>
        <mxCell id="4DTjlwW2_hXMruBSc5rI-15" value="- id : String&#xa;- name : String&#xa;- creditAccount : int&#xa;- email : String" style="text;strokeColor=none;fillColor=none;align=left;verticalAlign=top;spacingLeft=4;spacingRight=4;overflow=hidden;rotatable=0;points=[[0,0.5],[1,0.5]];portConstraint=eastwest;" vertex="1" parent="4DTjlwW2_hXMruBSc5rI-14">
          <mxGeometry y="26" width="160" height="84" as="geometry" />
        </mxCell>
        <mxCell id="4DTjlwW2_hXMruBSc5rI-16" value="" style="line;strokeWidth=1;fillColor=none;align=left;verticalAlign=middle;spacingTop=-1;spacingLeft=3;spacingRight=3;rotatable=0;labelPosition=right;points=[];portConstraint=eastwest;" vertex="1" parent="4DTjlwW2_hXMruBSc5rI-14">
          <mxGeometry y="110" width="160" height="10" as="geometry" />
        </mxCell>
        <mxCell id="4DTjlwW2_hXMruBSc5rI-17" value="+ buyCredit()&#xa;+ buyMovie()" style="text;strokeColor=none;fillColor=none;align=left;verticalAlign=top;spacingLeft=4;spacingRight=4;overflow=hidden;rotatable=0;points=[[0,0.5],[1,0.5]];portConstraint=eastwest;" vertex="1" parent="4DTjlwW2_hXMruBSc5rI-14">
          <mxGeometry y="120" width="160" height="98" as="geometry" />
        </mxCell>
        <mxCell id="4DTjlwW2_hXMruBSc5rI-18" value="User" style="swimlane;fontStyle=1;align=center;verticalAlign=top;childLayout=stackLayout;horizontal=1;startSize=26;horizontalStack=0;resizeParent=1;resizeParentMax=0;resizeLast=0;collapsible=1;marginBottom=0;" vertex="1" parent="1">
          <mxGeometry x="600" y="80" width="160" height="218" as="geometry" />
        </mxCell>
        <mxCell id="4DTjlwW2_hXMruBSc5rI-19" value="- subscribeId : int&#xa;- userId : int&#xa;- amount : int&#xa;- cardInfo : int" style="text;strokeColor=none;fillColor=none;align=left;verticalAlign=top;spacingLeft=4;spacingRight=4;overflow=hidden;rotatable=0;points=[[0,0.5],[1,0.5]];portConstraint=eastwest;" vertex="1" parent="4DTjlwW2_hXMruBSc5rI-18">
          <mxGeometry y="26" width="160" height="84" as="geometry" />
        </mxCell>
        <mxCell id="4DTjlwW2_hXMruBSc5rI-20" value="" style="line;strokeWidth=1;fillColor=none;align=left;verticalAlign=middle;spacingTop=-1;spacingLeft=3;spacingRight=3;rotatable=0;labelPosition=right;points=[];portConstraint=eastwest;" vertex="1" parent="4DTjlwW2_hXMruBSc5rI-18">
          <mxGeometry y="110" width="160" height="10" as="geometry" />
        </mxCell>
        <mxCell id="4DTjlwW2_hXMruBSc5rI-21" value="+ rentingMovie()&#xa;+ buyMovie()&#xa;+ request ()&#xa;+ comment()&#xa;+confrimTransaction()" style="text;strokeColor=none;fillColor=none;align=left;verticalAlign=top;spacingLeft=4;spacingRight=4;overflow=hidden;rotatable=0;points=[[0,0.5],[1,0.5]];portConstraint=eastwest;" vertex="1" parent="4DTjlwW2_hXMruBSc5rI-18">
          <mxGeometry y="120" width="160" height="98" as="geometry" />
        </mxCell>
        <mxCell id="4DTjlwW2_hXMruBSc5rI-22" value="Buy Credit" style="swimlane;fontStyle=1;align=center;verticalAlign=top;childLayout=stackLayout;horizontal=1;startSize=26;horizontalStack=0;resizeParent=1;resizeParentMax=0;resizeLast=0;collapsible=1;marginBottom=0;" vertex="1" parent="1">
          <mxGeometry x="320" y="360" width="160" height="158" as="geometry" />
        </mxCell>
        <mxCell id="4DTjlwW2_hXMruBSc5rI-23" value="- userId : String&#xa;- creditAmount : int" style="text;strokeColor=none;fillColor=none;align=left;verticalAlign=top;spacingLeft=4;spacingRight=4;overflow=hidden;rotatable=0;points=[[0,0.5],[1,0.5]];portConstraint=eastwest;" vertex="1" parent="4DTjlwW2_hXMruBSc5rI-22">
          <mxGeometry y="26" width="160" height="54" as="geometry" />
        </mxCell>
        <mxCell id="4DTjlwW2_hXMruBSc5rI-24" value="" style="line;strokeWidth=1;fillColor=none;align=left;verticalAlign=middle;spacingTop=-1;spacingLeft=3;spacingRight=3;rotatable=0;labelPosition=right;points=[];portConstraint=eastwest;" vertex="1" parent="4DTjlwW2_hXMruBSc5rI-22">
          <mxGeometry y="80" width="160" height="8" as="geometry" />
        </mxCell>
        <mxCell id="4DTjlwW2_hXMruBSc5rI-25" value="+ confirmTransaction()" style="text;strokeColor=none;fillColor=none;align=left;verticalAlign=top;spacingLeft=4;spacingRight=4;overflow=hidden;rotatable=0;points=[[0,0.5],[1,0.5]];portConstraint=eastwest;" vertex="1" parent="4DTjlwW2_hXMruBSc5rI-22">
          <mxGeometry y="88" width="160" height="70" as="geometry" />
        </mxCell>
        <mxCell id="4DTjlwW2_hXMruBSc5rI-26" value="Movie" style="swimlane;fontStyle=0;childLayout=stackLayout;horizontal=1;startSize=26;fillColor=none;horizontalStack=0;resizeParent=1;resizeParentMax=0;resizeLast=0;collapsible=1;marginBottom=0;" vertex="1" parent="1">
          <mxGeometry x="60" y="481" width="140" height="160" as="geometry" />
        </mxCell>
        <mxCell id="4DTjlwW2_hXMruBSc5rI-27" value="- name : String&#xa;" style="text;strokeColor=none;fillColor=none;align=left;verticalAlign=top;spacingLeft=4;spacingRight=4;overflow=hidden;rotatable=0;points=[[0,0.5],[1,0.5]];portConstraint=eastwest;" vertex="1" parent="4DTjlwW2_hXMruBSc5rI-26">
          <mxGeometry y="26" width="140" height="26" as="geometry" />
        </mxCell>
        <mxCell id="4DTjlwW2_hXMruBSc5rI-28" value="- contens : String" style="text;strokeColor=none;fillColor=none;align=left;verticalAlign=top;spacingLeft=4;spacingRight=4;overflow=hidden;rotatable=0;points=[[0,0.5],[1,0.5]];portConstraint=eastwest;" vertex="1" parent="4DTjlwW2_hXMruBSc5rI-26">
          <mxGeometry y="52" width="140" height="26" as="geometry" />
        </mxCell>
        <mxCell id="4DTjlwW2_hXMruBSc5rI-29" value="- edition : int&#xa;&#xa;- rentingPrice : int&#xa;&#xa;- salesPrice : int" style="text;strokeColor=none;fillColor=none;align=left;verticalAlign=top;spacingLeft=4;spacingRight=4;overflow=hidden;rotatable=0;points=[[0,0.5],[1,0.5]];portConstraint=eastwest;" vertex="1" parent="4DTjlwW2_hXMruBSc5rI-26">
          <mxGeometry y="78" width="140" height="82" as="geometry" />
        </mxCell>
        <mxCell id="4DTjlwW2_hXMruBSc5rI-30" value="Request Movie" style="swimlane;fontStyle=1;align=center;verticalAlign=top;childLayout=stackLayout;horizontal=1;startSize=26;horizontalStack=0;resizeParent=1;resizeParentMax=0;resizeLast=0;collapsible=1;marginBottom=0;" vertex="1" parent="1">
          <mxGeometry x="40" y="800" width="160" height="150" as="geometry" />
        </mxCell>
        <mxCell id="4DTjlwW2_hXMruBSc5rI-31" value="- requestId ; int&#xa;- movieName : String" style="text;strokeColor=none;fillColor=none;align=left;verticalAlign=top;spacingLeft=4;spacingRight=4;overflow=hidden;rotatable=0;points=[[0,0.5],[1,0.5]];portConstraint=eastwest;" vertex="1" parent="4DTjlwW2_hXMruBSc5rI-30">
          <mxGeometry y="26" width="160" height="44" as="geometry" />
        </mxCell>
        <mxCell id="4DTjlwW2_hXMruBSc5rI-32" value="" style="line;strokeWidth=1;fillColor=none;align=left;verticalAlign=middle;spacingTop=-1;spacingLeft=3;spacingRight=3;rotatable=0;labelPosition=right;points=[];portConstraint=eastwest;" vertex="1" parent="4DTjlwW2_hXMruBSc5rI-30">
          <mxGeometry y="70" width="160" height="8" as="geometry" />
        </mxCell>
        <mxCell id="4DTjlwW2_hXMruBSc5rI-33" value="+ addRequestList()&#xa;+ getNotification()" style="text;strokeColor=none;fillColor=none;align=left;verticalAlign=top;spacingLeft=4;spacingRight=4;overflow=hidden;rotatable=0;points=[[0,0.5],[1,0.5]];portConstraint=eastwest;" vertex="1" parent="4DTjlwW2_hXMruBSc5rI-30">
          <mxGeometry y="78" width="160" height="72" as="geometry" />
        </mxCell>
        <mxCell id="4DTjlwW2_hXMruBSc5rI-34" value="Buy Movie" style="swimlane;fontStyle=1;align=center;verticalAlign=top;childLayout=stackLayout;horizontal=1;startSize=26;horizontalStack=0;resizeParent=1;resizeParentMax=0;resizeLast=0;collapsible=1;marginBottom=0;" vertex="1" parent="1">
          <mxGeometry x="280" y="800" width="160" height="170" as="geometry" />
        </mxCell>
        <mxCell id="4DTjlwW2_hXMruBSc5rI-35" value="- amount : int&#xa;- movieName : String&#xa;- status : String" style="text;strokeColor=none;fillColor=none;align=left;verticalAlign=top;spacingLeft=4;spacingRight=4;overflow=hidden;rotatable=0;points=[[0,0.5],[1,0.5]];portConstraint=eastwest;" vertex="1" parent="4DTjlwW2_hXMruBSc5rI-34">
          <mxGeometry y="26" width="160" height="64" as="geometry" />
        </mxCell>
        <mxCell id="4DTjlwW2_hXMruBSc5rI-36" value="" style="line;strokeWidth=1;fillColor=none;align=left;verticalAlign=middle;spacingTop=-1;spacingLeft=3;spacingRight=3;rotatable=0;labelPosition=right;points=[];portConstraint=eastwest;" vertex="1" parent="4DTjlwW2_hXMruBSc5rI-34">
          <mxGeometry y="90" width="160" height="8" as="geometry" />
        </mxCell>
        <mxCell id="4DTjlwW2_hXMruBSc5rI-37" value="+ confirmTransaction()&#xa;+ cancel()" style="text;strokeColor=none;fillColor=none;align=left;verticalAlign=top;spacingLeft=4;spacingRight=4;overflow=hidden;rotatable=0;points=[[0,0.5],[1,0.5]];portConstraint=eastwest;" vertex="1" parent="4DTjlwW2_hXMruBSc5rI-34">
          <mxGeometry y="98" width="160" height="72" as="geometry" />
        </mxCell>
        <mxCell id="4DTjlwW2_hXMruBSc5rI-38" value="Rent" style="swimlane;fontStyle=1;align=center;verticalAlign=top;childLayout=stackLayout;horizontal=1;startSize=26;horizontalStack=0;resizeParent=1;resizeParentMax=0;resizeLast=0;collapsible=1;marginBottom=0;" vertex="1" parent="1">
          <mxGeometry x="520" y="800" width="160" height="170" as="geometry" />
        </mxCell>
        <mxCell id="4DTjlwW2_hXMruBSc5rI-39" value="- amount : int&#xa;- movieName : String&#xa;- status : String&#xa;- rentTime" style="text;strokeColor=none;fillColor=none;align=left;verticalAlign=top;spacingLeft=4;spacingRight=4;overflow=hidden;rotatable=0;points=[[0,0.5],[1,0.5]];portConstraint=eastwest;" vertex="1" parent="4DTjlwW2_hXMruBSc5rI-38">
          <mxGeometry y="26" width="160" height="64" as="geometry" />
        </mxCell>
        <mxCell id="4DTjlwW2_hXMruBSc5rI-40" value="" style="line;strokeWidth=1;fillColor=none;align=left;verticalAlign=middle;spacingTop=-1;spacingLeft=3;spacingRight=3;rotatable=0;labelPosition=right;points=[];portConstraint=eastwest;" vertex="1" parent="4DTjlwW2_hXMruBSc5rI-38">
          <mxGeometry y="90" width="160" height="8" as="geometry" />
        </mxCell>
        <mxCell id="4DTjlwW2_hXMruBSc5rI-41" value="+ confirmTransaction()&#xa;+ cancel()" style="text;strokeColor=none;fillColor=none;align=left;verticalAlign=top;spacingLeft=4;spacingRight=4;overflow=hidden;rotatable=0;points=[[0,0.5],[1,0.5]];portConstraint=eastwest;" vertex="1" parent="4DTjlwW2_hXMruBSc5rI-38">
          <mxGeometry y="98" width="160" height="72" as="geometry" />
        </mxCell>
        <mxCell id="4DTjlwW2_hXMruBSc5rI-42" value="Extends" style="endArrow=block;endSize=16;endFill=0;html=1;rounded=0;" edge="1" parent="1">
          <mxGeometry width="160" relative="1" as="geometry">
            <mxPoint x="140" y="720" as="sourcePoint" />
            <mxPoint x="140" y="650" as="targetPoint" />
          </mxGeometry>
        </mxCell>
        <mxCell id="4DTjlwW2_hXMruBSc5rI-43" value="" style="endArrow=none;html=1;rounded=0;entryX=0.75;entryY=0;entryDx=0;entryDy=0;entryPerimeter=0;" edge="1" parent="1" target="4DTjlwW2_hXMruBSc5rI-38">
          <mxGeometry width="50" height="50" relative="1" as="geometry">
            <mxPoint x="80" y="800" as="sourcePoint" />
            <mxPoint x="640" y="790" as="targetPoint" />
            <Array as="points">
              <mxPoint x="80" y="720" />
              <mxPoint x="360" y="720" />
              <mxPoint x="640" y="720" />
            </Array>
          </mxGeometry>
        </mxCell>
        <mxCell id="4DTjlwW2_hXMruBSc5rI-44" value="" style="endArrow=none;html=1;rounded=0;" edge="1" parent="1">
          <mxGeometry width="50" height="50" relative="1" as="geometry">
            <mxPoint x="360" y="800" as="sourcePoint" />
            <mxPoint x="360" y="720" as="targetPoint" />
          </mxGeometry>
        </mxCell>
        <mxCell id="4DTjlwW2_hXMruBSc5rI-45" value="" style="endArrow=diamondThin;endFill=1;endSize=24;html=1;rounded=0;entryX=0.5;entryY=1.022;entryDx=0;entryDy=0;entryPerimeter=0;" edge="1" parent="1" target="4DTjlwW2_hXMruBSc5rI-4">
          <mxGeometry width="160" relative="1" as="geometry">
            <mxPoint x="120" y="481" as="sourcePoint" />
            <mxPoint x="280" y="481" as="targetPoint" />
          </mxGeometry>
        </mxCell>
        <mxCell id="4DTjlwW2_hXMruBSc5rI-46" value="*" style="text;html=1;align=center;verticalAlign=middle;resizable=0;points=[];autosize=1;strokeColor=none;fillColor=none;" vertex="1" parent="1">
          <mxGeometry x="125" y="445" width="30" height="30" as="geometry" />
        </mxCell>
        <mxCell id="4DTjlwW2_hXMruBSc5rI-47" value="" style="endArrow=diamondThin;endFill=0;endSize=24;html=1;rounded=0;entryX=1.019;entryY=0.348;entryDx=0;entryDy=0;entryPerimeter=0;exitX=0.006;exitY=0.643;exitDx=0;exitDy=0;exitPerimeter=0;" edge="1" parent="1" source="4DTjlwW2_hXMruBSc5rI-15" target="4DTjlwW2_hXMruBSc5rI-4">
          <mxGeometry width="160" relative="1" as="geometry">
            <mxPoint x="300" y="50" as="sourcePoint" />
            <mxPoint x="320" y="150" as="targetPoint" />
          </mxGeometry>
        </mxCell>
        <mxCell id="4DTjlwW2_hXMruBSc5rI-48" value="1" style="text;html=1;align=center;verticalAlign=middle;resizable=0;points=[];autosize=1;strokeColor=none;fillColor=none;" vertex="1" parent="1">
          <mxGeometry x="205" y="115" width="30" height="30" as="geometry" />
        </mxCell>
        <mxCell id="4DTjlwW2_hXMruBSc5rI-49" value="0*n" style="text;html=1;align=center;verticalAlign=middle;resizable=0;points=[];autosize=1;strokeColor=none;fillColor=none;" vertex="1" parent="1">
          <mxGeometry x="290" y="155" width="40" height="30" as="geometry" />
        </mxCell>
        <mxCell id="4DTjlwW2_hXMruBSc5rI-51" value="" style="endArrow=none;html=1;rounded=0;entryX=0;entryY=0.643;entryDx=0;entryDy=0;entryPerimeter=0;" edge="1" parent="1" target="4DTjlwW2_hXMruBSc5rI-19">
          <mxGeometry width="50" height="50" relative="1" as="geometry">
            <mxPoint x="480" y="160" as="sourcePoint" />
            <mxPoint x="530" y="110" as="targetPoint" />
          </mxGeometry>
        </mxCell>
        <mxCell id="4DTjlwW2_hXMruBSc5rI-52" value="" style="endArrow=none;html=1;rounded=0;entryX=0.5;entryY=1.02;entryDx=0;entryDy=0;entryPerimeter=0;" edge="1" parent="1" target="4DTjlwW2_hXMruBSc5rI-17">
          <mxGeometry width="50" height="50" relative="1" as="geometry">
            <mxPoint x="400" y="360" as="sourcePoint" />
            <mxPoint x="450" y="310" as="targetPoint" />
          </mxGeometry>
        </mxCell>
      </root>
    </mxGraphModel>
  </diagram>
</mxfile>
